<svg xmlns="http://www.w3.org/2000/svg" viewBox="0 0 100 100">
  <defs>
    <linearGradient id="gradBrain" x1="0%" y1="0%" x2="100%" y2="100%">
      <stop offset="0%" style="stop-color:#5dade2;stop-opacity:1" />
      <stop offset="100%" style="stop-color:#2874a6;stop-opacity:1" />
    </linearGradient>
    <radialGradient id="gradCore" cx="50%" cy="50%" r="50%">
      <stop offset="0%" style="stop-color:#fff" />
      <stop offset="100%" style="stop-color:#f1c40f" />
    </radialGradient>
  </defs>
  <circle cx="50%" cy="50%" r="48" fill="none" stroke="#ddd" stroke-width="1"/>
  <path d="M50 15 C 30 15, 20 30, 20 45 C 20 65, 35 70, 50 85 C 65 70, 80 65, 80 45 C 80 30, 70 15, 50 15 Z" fill="none" stroke="url(#gradBrain)" stroke-width="3" opacity="0.6"/>
  <g stroke="#3498db" stroke-width="1" opacity="0.8">
    <line x1="30" y1="40" x2="45" y2="30"/>
    <line x1="30" y1="40" x2="40" y2="55"/>
    <line x1="45" y1="30" x2="60" y2="35"/>
    <line x1="60" y1="35" x2="70" y2="50"/>
    <line x1="70" y1="50" x2="60" y2="65"/>
    <line x1="40" y1="55" x2="60" y2="65"/>
    <line x1="40" y1="55" x2="50" y2="50"/>
  </g>
  <circle cx="30" cy="40" r="3" fill="#fff" stroke="#3498db"/>
  <circle cx="45" cy="30" r="3" fill="#fff" stroke="#3498db"/>
  <circle cx="60" cy="35" r="3" fill="#fff" stroke="#3498db"/>
  <circle cx="70" cy="50" r="3" fill="#fff" stroke="#3498db"/>
  <circle cx="60" cy="65" r="3" fill="#fff" stroke="#3498db"/>
  <circle cx="40" cy="55" r="3" fill="#fff" stroke="#3498db"/>
  <circle cx="50" cy="50" r="10" fill="url(#gradCore)" stroke="#f39c12" stroke-width="2"/>
</svg>
